<svg xmlns="http://www.w3.org/2000/svg" xmlns:xlink="http://www.w3.org/1999/xlink" width="500" height="500" version="1.2" viewBox="0 0 375 375"><defs><clipPath id="clip1"><path d="M 37.5 37.5 L 337.5 37.5 L 337.5 337.5 L 37.5 337.5 Z M 37.5 37.5"/></clipPath><clipPath id="clip2"><path d="M 289.113281 202.015625 L 221.371094 202.015625 L 221.371094 192.339844 L 289.113281 192.339844 Z M 298.789062 192.339844 L 318.144531 192.339844 L 318.144531 202.015625 L 298.789062 202.015625 Z M 221.371094 172.984375 L 318.144531 172.984375 L 318.144531 182.660156 L 221.371094 182.660156 Z M 231.046875 105.242188 L 308.46875 105.242188 L 308.46875 153.628906 L 231.046875 153.628906 Z M 221.371094 163.304688 L 318.144531 163.304688 L 318.144531 95.566406 L 221.371094 95.566406 Z M 134.273438 211.695312 L 192.339844 211.695312 L 192.339844 221.371094 L 134.273438 221.371094 Z M 134.273438 231.046875 L 192.339844 231.046875 L 192.339844 240.726562 L 134.273438 240.726562 Z M 134.273438 250.402344 L 192.339844 250.402344 L 192.339844 260.082031 L 134.273438 260.082031 Z M 172.984375 269.757812 L 172.984375 279.433594 L 163.304688 279.433594 L 163.304688 269.757812 Z M 182.660156 269.757812 L 192.339844 269.757812 L 192.339844 279.433594 L 182.660156 279.433594 Z M 153.628906 279.433594 L 143.953125 279.433594 L 143.953125 269.757812 L 153.628906 269.757812 Z M 66.53125 298.789062 L 85.886719 298.789062 L 85.886719 308.46875 L 66.53125 308.46875 Z M 56.855469 318.144531 L 95.566406 318.144531 L 95.566406 289.113281 L 56.855469 289.113281 Z M 114.917969 298.789062 L 134.273438 298.789062 L 134.273438 308.46875 L 114.917969 308.46875 Z M 105.242188 318.144531 L 143.953125 318.144531 L 143.953125 289.113281 L 105.242188 289.113281 Z M 240.726562 221.371094 L 260.082031 221.371094 L 260.082031 231.046875 L 240.726562 231.046875 Z M 231.046875 240.726562 L 269.757812 240.726562 L 269.757812 211.695312 L 231.046875 211.695312 Z M 289.113281 221.371094 L 308.46875 221.371094 L 308.46875 231.046875 L 289.113281 231.046875 Z M 279.433594 240.726562 L 318.144531 240.726562 L 318.144531 211.695312 L 279.433594 211.695312 Z M 163.304688 298.789062 L 182.660156 298.789062 L 182.660156 308.46875 L 163.304688 308.46875 Z M 153.628906 318.144531 L 192.339844 318.144531 L 192.339844 289.113281 L 153.628906 289.113281 Z M 114.917969 260.082031 L 66.53125 260.082031 L 66.53125 250.402344 L 85.886719 250.402344 L 85.886719 206.855469 L 66.53125 206.855469 L 66.53125 197.175781 L 71.371094 197.175781 C 76.53125 197.175781 81.578125 195.476562 85.753906 192.339844 L 95.566406 192.339844 L 95.566406 250.402344 L 114.917969 250.402344 Z M 124.597656 240.726562 L 105.242188 240.726562 L 105.242188 182.660156 L 82.21875 182.660156 L 80.859375 183.851562 C 78.96875 185.515625 75.773438 187.5 71.371094 187.5 L 56.855469 187.5 L 56.855469 216.53125 L 76.210938 216.53125 L 76.210938 240.726562 L 56.855469 240.726562 L 56.855469 269.757812 L 124.597656 269.757812 Z M 90.726562 143.953125 C 96.054688 143.953125 100.402344 148.300781 100.402344 153.628906 C 100.402344 158.960938 96.054688 163.304688 90.726562 163.304688 C 85.394531 163.304688 81.046875 158.960938 81.046875 153.628906 C 81.046875 148.300781 85.394531 143.953125 90.726562 143.953125 Z M 90.726562 172.984375 C 101.40625 172.984375 110.082031 164.308594 110.082031 153.628906 C 110.082031 142.949219 101.40625 134.273438 90.726562 134.273438 C 80.046875 134.273438 71.371094 142.949219 71.371094 153.628906 C 71.371094 164.308594 80.046875 172.984375 90.726562 172.984375 Z M 153.628906 66.53125 L 143.953125 66.53125 L 143.953125 56.855469 L 153.628906 56.855469 Z M 134.273438 66.53125 L 124.597656 66.53125 L 124.597656 56.855469 L 134.273438 56.855469 Z M 114.917969 66.53125 L 105.242188 66.53125 L 105.242188 56.855469 L 114.917969 56.855469 Z M 322.984375 250.402344 L 211.695312 250.402344 L 211.695312 114.917969 L 95.566406 114.917969 L 95.566406 85.886719 L 327.824219 85.886719 L 327.824219 245.566406 C 327.824219 248.230469 325.648438 250.402344 322.984375 250.402344 Z M 146.785156 124.597656 L 202.015625 179.824219 L 202.015625 195.175781 L 131.4375 124.597656 Z M 202.015625 166.140625 L 160.472656 124.597656 L 202.015625 124.597656 Z M 47.175781 327.824219 L 47.175781 124.597656 L 117.753906 124.597656 L 202.015625 208.859375 L 202.015625 327.824219 Z M 100.402344 47.175781 L 322.984375 47.175781 C 325.648438 47.175781 327.824219 49.351562 327.824219 52.015625 L 327.824219 76.210938 L 95.566406 76.210938 L 95.566406 52.015625 C 95.566406 49.351562 97.738281 47.175781 100.402344 47.175781 Z M 322.984375 37.5 L 100.402344 37.5 C 92.390625 37.5 85.886719 44.003906 85.886719 52.015625 L 85.886719 114.917969 L 37.5 114.917969 L 37.5 337.5 L 211.695312 337.5 L 211.695312 260.082031 L 322.984375 260.082031 C 330.996094 260.082031 337.5 253.578125 337.5 245.566406 L 337.5 52.015625 C 337.5 44.003906 330.996094 37.5 322.984375 37.5 Z M 322.984375 37.5"/></clipPath><clipPath id="clip3"><path d="M 289.113281 202.015625 L 221.371094 202.015625 L 221.371094 192.339844 L 289.113281 192.339844 Z M 298.789062 192.339844 L 318.144531 192.339844 L 318.144531 202.015625 L 298.789062 202.015625 Z M 221.371094 172.984375 L 318.144531 172.984375 L 318.144531 182.660156 L 221.371094 182.660156 Z M 231.046875 105.242188 L 308.46875 105.242188 L 308.46875 153.628906 L 231.046875 153.628906 Z M 221.371094 163.304688 L 318.144531 163.304688 L 318.144531 95.566406 L 221.371094 95.566406 Z M 134.273438 211.695312 L 192.339844 211.695312 L 192.339844 221.371094 L 134.273438 221.371094 Z M 134.273438 231.046875 L 192.339844 231.046875 L 192.339844 240.726562 L 134.273438 240.726562 Z M 134.273438 250.402344 L 192.339844 250.402344 L 192.339844 260.082031 L 134.273438 260.082031 Z M 172.984375 269.757812 L 172.984375 279.433594 L 163.304688 279.433594 L 163.304688 269.757812 Z M 182.660156 269.757812 L 192.339844 269.757812 L 192.339844 279.433594 L 182.660156 279.433594 Z M 153.628906 279.433594 L 143.953125 279.433594 L 143.953125 269.757812 L 153.628906 269.757812 Z M 66.53125 298.789062 L 85.886719 298.789062 L 85.886719 308.46875 L 66.53125 308.46875 Z M 56.855469 318.144531 L 95.566406 318.144531 L 95.566406 289.113281 L 56.855469 289.113281 Z M 114.917969 298.789062 L 134.273438 298.789062 L 134.273438 308.46875 L 114.917969 308.46875 Z M 105.242188 318.144531 L 143.953125 318.144531 L 143.953125 289.113281 L 105.242188 289.113281 Z M 240.726562 221.371094 L 260.082031 221.371094 L 260.082031 231.046875 L 240.726562 231.046875 Z M 231.046875 240.726562 L 269.757812 240.726562 L 269.757812 211.695312 L 231.046875 211.695312 Z M 289.113281 221.371094 L 308.46875 221.371094 L 308.46875 231.046875 L 289.113281 231.046875 Z M 279.433594 240.726562 L 318.144531 240.726562 L 318.144531 211.695312 L 279.433594 211.695312 Z M 163.304688 298.789062 L 182.660156 298.789062 L 182.660156 308.46875 L 163.304688 308.46875 Z M 153.628906 318.144531 L 192.339844 318.144531 L 192.339844 289.113281 L 153.628906 289.113281 Z M 114.917969 260.082031 L 66.53125 260.082031 L 66.53125 250.402344 L 85.886719 250.402344 L 85.886719 206.855469 L 66.53125 206.855469 L 66.53125 197.175781 L 71.371094 197.175781 C 76.53125 197.175781 81.578125 195.476562 85.753906 192.339844 L 95.566406 192.339844 L 95.566406 250.402344 L 114.917969 250.402344 Z M 124.597656 240.726562 L 105.242188 240.726562 L 105.242188 182.660156 L 82.21875 182.660156 L 80.859375 183.851562 C 78.96875 185.515625 75.773438 187.5 71.371094 187.5 L 56.855469 187.5 L 56.855469 216.53125 L 76.210938 216.53125 L 76.210938 240.726562 L 56.855469 240.726562 L 56.855469 269.757812 L 124.597656 269.757812 Z M 90.726562 143.953125 C 96.054688 143.953125 100.402344 148.300781 100.402344 153.628906 C 100.402344 158.960938 96.054688 163.304688 90.726562 163.304688 C 85.394531 163.304688 81.046875 158.960938 81.046875 153.628906 C 81.046875 148.300781 85.394531 143.953125 90.726562 143.953125 Z M 90.726562 172.984375 C 101.40625 172.984375 110.082031 164.308594 110.082031 153.628906 C 110.082031 142.949219 101.40625 134.273438 90.726562 134.273438 C 80.046875 134.273438 71.371094 142.949219 71.371094 153.628906 C 71.371094 164.308594 80.046875 172.984375 90.726562 172.984375 Z M 153.628906 66.53125 L 143.953125 66.53125 L 143.953125 56.855469 L 153.628906 56.855469 Z M 134.273438 66.53125 L 124.597656 66.53125 L 124.597656 56.855469 L 134.273438 56.855469 Z M 114.917969 66.53125 L 105.242188 66.53125 L 105.242188 56.855469 L 114.917969 56.855469 Z M 322.984375 250.402344 L 211.695312 250.402344 L 211.695312 114.917969 L 95.566406 114.917969 L 95.566406 85.886719 L 327.824219 85.886719 L 327.824219 245.566406 C 327.824219 248.230469 325.648438 250.402344 322.984375 250.402344 Z M 146.785156 124.597656 L 202.015625 179.824219 L 202.015625 195.175781 L 131.4375 124.597656 Z M 202.015625 166.140625 L 160.472656 124.597656 L 202.015625 124.597656 Z M 47.175781 327.824219 L 47.175781 124.597656 L 117.753906 124.597656 L 202.015625 208.859375 L 202.015625 327.824219 Z M 100.402344 47.175781 L 322.984375 47.175781 C 325.648438 47.175781 327.824219 49.351562 327.824219 52.015625 L 327.824219 76.210938 L 95.566406 76.210938 L 95.566406 52.015625 C 95.566406 49.351562 97.738281 47.175781 100.402344 47.175781 Z M 322.984375 37.5 L 100.402344 37.5 C 92.390625 37.5 85.886719 44.003906 85.886719 52.015625 L 85.886719 114.917969 L 37.5 114.917969 L 37.5 337.5 L 211.695312 337.5 L 211.695312 260.082031 L 322.984375 260.082031 C 330.996094 260.082031 337.5 253.578125 337.5 245.566406 L 337.5 52.015625 C 337.5 44.003906 330.996094 37.5 322.984375 37.5"/></clipPath><linearGradient id="linear0" x1="0" x2="1" y1="0" y2="0" gradientTransform="matrix(0,-299.999993,299.999993,0,187.5,337.499994)" gradientUnits="userSpaceOnUse"><stop offset="0" style="stop-color:#9f2fff;stop-opacity:1"/><stop offset=".004" style="stop-color:#9f2fff;stop-opacity:1"/><stop offset=".008" style="stop-color:#9e30ff;stop-opacity:1"/><stop offset=".012" style="stop-color:#9e30fe;stop-opacity:1"/><stop offset=".016" style="stop-color:#9d31fe;stop-opacity:1"/><stop offset=".02" style="stop-color:#9d32fe;stop-opacity:1"/><stop offset=".023" style="stop-color:#9c32fe;stop-opacity:1"/><stop offset=".027" style="stop-color:#9b33fe;stop-opacity:1"/><stop offset=".031" style="stop-color:#9a33fe;stop-opacity:1"/><stop offset=".035" style="stop-color:#9a34fd;stop-opacity:1"/><stop offset=".039" style="stop-color:#9934fd;stop-opacity:1"/><stop offset=".043" style="stop-color:#9935fd;stop-opacity:1"/><stop offset=".047" style="stop-color:#9835fd;stop-opacity:1"/><stop offset=".051" style="stop-color:#9736fd;stop-opacity:1"/><stop offset=".055" style="stop-color:#9736fd;stop-opacity:1"/><stop offset=".059" style="stop-color:#9637fc;stop-opacity:1"/><stop offset=".063" style="stop-color:#9637fc;stop-opacity:1"/><stop offset=".066" style="stop-color:#9538fc;stop-opacity:1"/><stop offset=".07" style="stop-color:#9538fc;stop-opacity:1"/><stop offset=".074" style="stop-color:#9439fc;stop-opacity:1"/><stop offset=".078" style="stop-color:#9339fc;stop-opacity:1"/><stop offset=".086" style="stop-color:#923afb;stop-opacity:1"/><stop offset=".09" style="stop-color:#923afb;stop-opacity:1"/><stop offset=".094" style="stop-color:#913bfb;stop-opacity:1"/><stop offset=".098" style="stop-color:#913bfb;stop-opacity:1"/><stop offset=".102" style="stop-color:#903cfb;stop-opacity:1"/><stop offset=".105" style="stop-color:#903cfa;stop-opacity:1"/><stop offset=".109" style="stop-color:#8f3dfa;stop-opacity:1"/><stop offset=".117" style="stop-color:#8e3efa;stop-opacity:1"/><stop offset=".121" style="stop-color:#8d3ef9;stop-opacity:1"/><stop offset=".125" style="stop-color:#8c3ff9;stop-opacity:1"/><stop offset=".129" style="stop-color:#8c3ff9;stop-opacity:1"/><stop offset=".133" style="stop-color:#8b40f9;stop-opacity:1"/><stop offset=".137" style="stop-color:#8b41f9;stop-opacity:1"/><stop offset=".141" style="stop-color:#8a41f9;stop-opacity:1"/><stop offset=".145" style="stop-color:#8942f8;stop-opacity:1"/><stop offset=".148" style="stop-color:#8942f8;stop-opacity:1"/><stop offset=".156" style="stop-color:#8843f8;stop-opacity:1"/><stop offset=".164" style="stop-color:#8744f8;stop-opacity:1"/><stop offset=".168" style="stop-color:#8645f8;stop-opacity:1"/><stop offset=".172" style="stop-color:#8645f7;stop-opacity:1"/><stop offset=".176" style="stop-color:#8546f7;stop-opacity:1"/><stop offset=".18" style="stop-color:#8446f7;stop-opacity:1"/><stop offset=".188" style="stop-color:#8447f7;stop-opacity:1"/><stop offset=".191" style="stop-color:#8347f7;stop-opacity:1"/><stop offset=".195" style="stop-color:#8248f6;stop-opacity:1"/><stop offset=".199" style="stop-color:#8248f6;stop-opacity:1"/><stop offset=".203" style="stop-color:#8149f6;stop-opacity:1"/><stop offset=".211" style="stop-color:#8149f6;stop-opacity:1"/><stop offset=".215" style="stop-color:#7f4af6;stop-opacity:1"/><stop offset=".219" style="stop-color:#7f4bf5;stop-opacity:1"/><stop offset=".223" style="stop-color:#7e4bf5;stop-opacity:1"/><stop offset=".227" style="stop-color:#7d4cf5;stop-opacity:1"/><stop offset=".23" style="stop-color:#7c4df5;stop-opacity:1"/><stop offset=".234" style="stop-color:#7c4df5;stop-opacity:1"/><stop offset=".238" style="stop-color:#7b4ef5;stop-opacity:1"/><stop offset=".242" style="stop-color:#7b4ef4;stop-opacity:1"/><stop offset=".246" style="stop-color:#7a4ff4;stop-opacity:1"/><stop offset=".25" style="stop-color:#7a4ff4;stop-opacity:1"/><stop offset=".254" style="stop-color:#7a50f4;stop-opacity:1"/><stop offset=".258" style="stop-color:#7951f4;stop-opacity:1"/><stop offset=".262" style="stop-color:#7952f4;stop-opacity:1"/><stop offset=".266" style="stop-color:#7852f3;stop-opacity:1"/><stop offset=".27" style="stop-color:#7852f3;stop-opacity:1"/><stop offset=".273" style="stop-color:#7753f3;stop-opacity:1"/><stop offset=".277" style="stop-color:#7653f3;stop-opacity:1"/><stop offset=".281" style="stop-color:#7554f3;stop-opacity:1"/><stop offset=".285" style="stop-color:#7554f2;stop-opacity:1"/><stop offset=".289" style="stop-color:#7455f2;stop-opacity:1"/><stop offset=".297" style="stop-color:#7455f2;stop-opacity:1"/><stop offset=".301" style="stop-color:#7356f2;stop-opacity:1"/><stop offset=".305" style="stop-color:#7257f2;stop-opacity:1"/><stop offset=".309" style="stop-color:#7157f1;stop-opacity:1"/><stop offset=".313" style="stop-color:#7158f1;stop-opacity:1"/><stop offset=".316" style="stop-color:#7058f1;stop-opacity:1"/><stop offset=".32" style="stop-color:#7059f1;stop-opacity:1"/><stop offset=".324" style="stop-color:#6f5af1;stop-opacity:1"/><stop offset=".328" style="stop-color:#6e5af1;stop-opacity:1"/><stop offset=".332" style="stop-color:#6d5bf0;stop-opacity:1"/><stop offset=".336" style="stop-color:#6d5bf0;stop-opacity:1"/><stop offset=".344" style="stop-color:#6d5cf0;stop-opacity:1"/><stop offset=".352" style="stop-color:#6c5cf0;stop-opacity:1"/><stop offset=".355" style="stop-color:#6b5eef;stop-opacity:1"/><stop offset=".359" style="stop-color:#6a5eef;stop-opacity:1"/><stop offset=".363" style="stop-color:#695fef;stop-opacity:1"/><stop offset=".367" style="stop-color:#695fef;stop-opacity:1"/><stop offset=".371" style="stop-color:#685fee;stop-opacity:1"/><stop offset=".375" style="stop-color:#6760ee;stop-opacity:1"/><stop offset=".383" style="stop-color:#6760ee;stop-opacity:1"/><stop offset=".391" style="stop-color:#6661ee;stop-opacity:1"/><stop offset=".395" style="stop-color:#6462ed;stop-opacity:1"/><stop offset=".398" style="stop-color:#6463ed;stop-opacity:1"/><stop offset=".402" style="stop-color:#6363ed;stop-opacity:1"/><stop offset=".406" style="stop-color:#6364ed;stop-opacity:1"/><stop offset=".41" style="stop-color:#6264ed;stop-opacity:1"/><stop offset=".414" style="stop-color:#6265ed;stop-opacity:1"/><stop offset=".418" style="stop-color:#6165ec;stop-opacity:1"/><stop offset=".422" style="stop-color:#6166ec;stop-opacity:1"/><stop offset=".426" style="stop-color:#6066ec;stop-opacity:1"/><stop offset=".43" style="stop-color:#5f67ec;stop-opacity:1"/><stop offset=".438" style="stop-color:#5f67ec;stop-opacity:1"/><stop offset=".441" style="stop-color:#5e68eb;stop-opacity:1"/><stop offset=".445" style="stop-color:#5d69eb;stop-opacity:1"/><stop offset=".449" style="stop-color:#5d6aeb;stop-opacity:1"/><stop offset=".453" style="stop-color:#5c6aeb;stop-opacity:1"/><stop offset=".457" style="stop-color:#5c6beb;stop-opacity:1"/><stop offset=".461" style="stop-color:#5b6beb;stop-opacity:1"/><stop offset=".465" style="stop-color:#5b6ceb;stop-opacity:1"/><stop offset=".469" style="stop-color:#5a6cea;stop-opacity:1"/><stop offset=".473" style="stop-color:#596cea;stop-opacity:1"/><stop offset=".477" style="stop-color:#586dea;stop-opacity:1"/><stop offset=".48" style="stop-color:#586dea;stop-opacity:1"/><stop offset=".484" style="stop-color:#576eea;stop-opacity:1"/><stop offset=".488" style="stop-color:#566eea;stop-opacity:1"/><stop offset=".492" style="stop-color:#566fe9;stop-opacity:1"/><stop offset=".496" style="stop-color:#556fe9;stop-opacity:1"/><stop offset=".5" style="stop-color:#5570e9;stop-opacity:1"/><stop offset=".504" style="stop-color:#5470e9;stop-opacity:1"/><stop offset=".508" style="stop-color:#5471e9;stop-opacity:1"/><stop offset=".512" style="stop-color:#5371e9;stop-opacity:1"/><stop offset=".516" style="stop-color:#5372e8;stop-opacity:1"/><stop offset=".52" style="stop-color:#5273e8;stop-opacity:1"/><stop offset=".523" style="stop-color:#5273e8;stop-opacity:1"/><stop offset=".527" style="stop-color:#5174e8;stop-opacity:1"/><stop offset=".531" style="stop-color:#5074e8;stop-opacity:1"/><stop offset=".535" style="stop-color:#5075e8;stop-opacity:1"/><stop offset=".539" style="stop-color:#4f75e7;stop-opacity:1"/><stop offset=".543" style="stop-color:#4f76e7;stop-opacity:1"/><stop offset=".547" style="stop-color:#4e76e7;stop-opacity:1"/><stop offset=".551" style="stop-color:#4e77e7;stop-opacity:1"/><stop offset=".555" style="stop-color:#4d77e7;stop-opacity:1"/><stop offset=".559" style="stop-color:#4c78e7;stop-opacity:1"/><stop offset=".563" style="stop-color:#4c78e6;stop-opacity:1"/><stop offset=".566" style="stop-color:#4b79e6;stop-opacity:1"/><stop offset=".57" style="stop-color:#4b79e6;stop-opacity:1"/><stop offset=".574" style="stop-color:#4a7ae6;stop-opacity:1"/><stop offset=".578" style="stop-color:#497ae6;stop-opacity:1"/><stop offset=".582" style="stop-color:#487ae5;stop-opacity:1"/><stop offset=".586" style="stop-color:#487be5;stop-opacity:1"/><stop offset=".59" style="stop-color:#477be5;stop-opacity:1"/><stop offset=".594" style="stop-color:#477ce5;stop-opacity:1"/><stop offset=".598" style="stop-color:#477ce5;stop-opacity:1"/><stop offset=".602" style="stop-color:#467de5;stop-opacity:1"/><stop offset=".605" style="stop-color:#467ee4;stop-opacity:1"/><stop offset=".609" style="stop-color:#457ee4;stop-opacity:1"/><stop offset=".617" style="stop-color:#457fe4;stop-opacity:1"/><stop offset=".621" style="stop-color:#4380e3;stop-opacity:1"/><stop offset=".625" style="stop-color:#4280e3;stop-opacity:1"/><stop offset=".629" style="stop-color:#4281e3;stop-opacity:1"/><stop offset=".633" style="stop-color:#4181e3;stop-opacity:1"/><stop offset=".637" style="stop-color:#4182e3;stop-opacity:1"/><stop offset=".641" style="stop-color:#4082e3;stop-opacity:1"/><stop offset=".645" style="stop-color:#3f83e2;stop-opacity:1"/><stop offset=".648" style="stop-color:#3f83e2;stop-opacity:1"/><stop offset=".656" style="stop-color:#3e84e2;stop-opacity:1"/><stop offset=".664" style="stop-color:#3d85e2;stop-opacity:1"/><stop offset=".668" style="stop-color:#3c85e1;stop-opacity:1"/><stop offset=".672" style="stop-color:#3c86e1;stop-opacity:1"/><stop offset=".676" style="stop-color:#3b86e1;stop-opacity:1"/><stop offset=".68" style="stop-color:#3a87e1;stop-opacity:1"/><stop offset=".684" style="stop-color:#3a87e1;stop-opacity:1"/><stop offset=".688" style="stop-color:#3988e1;stop-opacity:1"/><stop offset=".691" style="stop-color:#3988e0;stop-opacity:1"/><stop offset=".695" style="stop-color:#3889e0;stop-opacity:1"/><stop offset=".699" style="stop-color:#3889e0;stop-opacity:1"/><stop offset=".703" style="stop-color:#378ae0;stop-opacity:1"/><stop offset=".711" style="stop-color:#378ae0;stop-opacity:1"/><stop offset=".715" style="stop-color:#368be0;stop-opacity:1"/><stop offset=".719" style="stop-color:#358cdf;stop-opacity:1"/><stop offset=".723" style="stop-color:#348ddf;stop-opacity:1"/><stop offset=".727" style="stop-color:#338ddf;stop-opacity:1"/><stop offset=".73" style="stop-color:#338edf;stop-opacity:1"/><stop offset=".734" style="stop-color:#328edf;stop-opacity:1"/><stop offset=".738" style="stop-color:#318fdf;stop-opacity:1"/><stop offset=".742" style="stop-color:#318fde;stop-opacity:1"/><stop offset=".746" style="stop-color:#3090de;stop-opacity:1"/><stop offset=".75" style="stop-color:#3090de;stop-opacity:1"/><stop offset=".754" style="stop-color:#2f91de;stop-opacity:1"/><stop offset=".758" style="stop-color:#2f92de;stop-opacity:1"/><stop offset=".762" style="stop-color:#2e92de;stop-opacity:1"/><stop offset=".766" style="stop-color:#2e93dd;stop-opacity:1"/><stop offset=".77" style="stop-color:#2d93dd;stop-opacity:1"/><stop offset=".773" style="stop-color:#2d94dd;stop-opacity:1"/><stop offset=".777" style="stop-color:#2c94dd;stop-opacity:1"/><stop offset=".781" style="stop-color:#2b95dd;stop-opacity:1"/><stop offset=".785" style="stop-color:#2b95dd;stop-opacity:1"/><stop offset=".789" style="stop-color:#2a96dc;stop-opacity:1"/><stop offset=".797" style="stop-color:#2a96dc;stop-opacity:1"/><stop offset=".801" style="stop-color:#2997dc;stop-opacity:1"/><stop offset=".805" style="stop-color:#2898dc;stop-opacity:1"/><stop offset=".809" style="stop-color:#2898dc;stop-opacity:1"/><stop offset=".813" style="stop-color:#2799db;stop-opacity:1"/><stop offset=".816" style="stop-color:#2699db;stop-opacity:1"/><stop offset=".82" style="stop-color:#269adb;stop-opacity:1"/><stop offset=".824" style="stop-color:#259bdb;stop-opacity:1"/><stop offset=".828" style="stop-color:#249bdb;stop-opacity:1"/><stop offset=".832" style="stop-color:#239cdb;stop-opacity:1"/><stop offset=".836" style="stop-color:#239cda;stop-opacity:1"/><stop offset=".844" style="stop-color:#229dda;stop-opacity:1"/><stop offset=".852" style="stop-color:#219dda;stop-opacity:1"/><stop offset=".855" style="stop-color:#209fda;stop-opacity:1"/><stop offset=".859" style="stop-color:#209fd9;stop-opacity:1"/><stop offset=".867" style="stop-color:#1f9fd9;stop-opacity:1"/><stop offset=".871" style="stop-color:#1ea0d8;stop-opacity:1"/><stop offset=".875" style="stop-color:#1da1d8;stop-opacity:1"/><stop offset=".883" style="stop-color:#1da1d8;stop-opacity:1"/><stop offset=".891" style="stop-color:#1ca2d8;stop-opacity:1"/><stop offset=".895" style="stop-color:#1ba3d7;stop-opacity:1"/><stop offset=".898" style="stop-color:#1aa4d7;stop-opacity:1"/><stop offset=".902" style="stop-color:#19a4d7;stop-opacity:1"/><stop offset=".906" style="stop-color:#19a5d7;stop-opacity:1"/><stop offset=".91" style="stop-color:#18a5d7;stop-opacity:1"/><stop offset=".914" style="stop-color:#18a6d7;stop-opacity:1"/><stop offset=".918" style="stop-color:#17a6d6;stop-opacity:1"/><stop offset=".922" style="stop-color:#17a7d6;stop-opacity:1"/><stop offset=".926" style="stop-color:#16a7d6;stop-opacity:1"/><stop offset=".93" style="stop-color:#15a8d6;stop-opacity:1"/><stop offset=".938" style="stop-color:#15a8d6;stop-opacity:1"/><stop offset=".941" style="stop-color:#14aad5;stop-opacity:1"/><stop offset=".945" style="stop-color:#13aad5;stop-opacity:1"/><stop offset=".949" style="stop-color:#13abd5;stop-opacity:1"/><stop offset=".953" style="stop-color:#12abd5;stop-opacity:1"/><stop offset=".957" style="stop-color:#12acd5;stop-opacity:1"/><stop offset=".961" style="stop-color:#11acd5;stop-opacity:1"/><stop offset=".965" style="stop-color:#11acd4;stop-opacity:1"/><stop offset=".969" style="stop-color:#10add4;stop-opacity:1"/><stop offset=".973" style="stop-color:#0fadd4;stop-opacity:1"/><stop offset=".977" style="stop-color:#0eaed4;stop-opacity:1"/><stop offset=".98" style="stop-color:#0eaed4;stop-opacity:1"/><stop offset=".984" style="stop-color:#0dafd4;stop-opacity:1"/><stop offset=".988" style="stop-color:#0cafd3;stop-opacity:1"/><stop offset=".992" style="stop-color:#0cb0d3;stop-opacity:1"/><stop offset=".996" style="stop-color:#0bb0d3;stop-opacity:1"/><stop offset="1" style="stop-color:#0bb1d3;stop-opacity:1"/></linearGradient></defs><g id="surface1"><g clip-path="url(#clip1)" clip-rule="nonzero"><g clip-path="url(#clip2)" clip-rule="nonzero"><g clip-path="url(#clip3)" clip-rule="nonzero"><path style="stroke:none;fill-rule:nonzero;fill:url(#linear0)" d="M 37.5 337.5 L 337.5 337.5 L 337.5 37.5 L 37.5 37.5 Z M 37.5 337.5"/></g></g></g></g></svg>